<svg width="577" height="619" viewBox="0 0 577 619" fill="none" xmlns="http://www.w3.org/2000/svg">
<path d="M46.3333 3.33363L43 6.53363V51.3336V96.0003H25C7.53333 96.0003 6.73333 96.1336 3.66666 99.3336L0.333325 102.534V357.334V612.134L3.66666 615.334L6.86666 618.667H288.333H569.8L573 615.334C577.4 611.067 577.4 604.934 573 600.667L569.8 597.334H295.667H21.6667V357.334V117.334H32.3333H43V316.534C43 510.667 43 515.734 45.5333 518.8L48.0667 522L281.267 522.667L514.333 523.334L523.267 527.6C541.267 536.134 552.867 552.267 554.6 571.334C555.267 578.4 556.2 581.2 558.467 583.6C562.6 587.734 568.867 587.6 573 583.334L576.333 580.134V324.267C576.333 148.667 575.933 66.0003 574.867 60.5336C569.8 32.1336 544.2 6.53363 515.8 1.46696C510.467 0.533627 457.133 0.000293255 353.4 0.000293255H198.867L195.667 3.33363C191.667 7.20029 191.4 13.2003 194.867 17.467L197.4 20.667L355.933 21.3336L514.467 22.0003L524.6 26.9336C536.733 32.9336 544.2 40.667 550.067 53.067L554.333 62.0003L554.733 292.534C555 478.134 554.733 522.8 553.4 521.734C552.467 521.067 549.267 518.534 546.333 516.267C539.133 510.667 525.267 504.534 515.667 502.8C510.2 501.734 440.733 501.334 286.067 501.334H64.3333V261.334V21.3336H114.333H164.467L167.667 18.0003C169.8 16.0003 171 13.2003 171 10.667C171 8.13363 169.8 5.33363 167.667 3.33363L164.467 0.000293255H107H49.5333L46.3333 3.33363Z" fill="white"/>
<path d="M110.333 78.0003L107 81.2003V122.667V164.134L110.333 167.334L113.533 170.667H155H196.467L199.667 167.334L203 164.134V122.667V81.2003L199.667 78.0003L196.467 74.667H155H113.533L110.333 78.0003ZM181.667 122.667V149.334H155H128.333V122.667V96.0003H155H181.667V122.667Z" fill="white"/>
<path d="M227.667 88.667C225.533 90.667 224.333 93.467 224.333 96.0003C224.333 98.5337 225.533 101.334 227.667 103.334L230.867 106.667H339H447.133L450.333 103.334C452.467 101.334 453.667 98.5337 453.667 96.0003C453.667 93.467 452.467 90.667 450.333 88.667L447.133 85.3337H339H230.867L227.667 88.667Z" fill="white"/>
<path d="M227.667 131.334C225.533 133.334 224.333 136.134 224.333 138.667C224.333 141.201 225.533 144.001 227.667 146.001L230.867 149.334H288.333H345.8L349 146.001C351.133 144.001 352.333 141.201 352.333 138.667C352.333 136.134 351.133 133.334 349 131.334L345.8 128.001H288.333H230.867L227.667 131.334Z" fill="white"/>
<path d="M110.333 216.667L107 219.867V261.334V302.801L110.333 306.001L113.533 309.334H155H196.467L199.667 306.001L203 302.801V261.334V219.867L199.667 216.667L196.467 213.334H155H113.533L110.333 216.667ZM181.667 261.334V288.001H155H128.333V261.334V234.667H155H181.667V261.334Z" fill="white"/>
<path d="M227.667 227.334C225.533 229.334 224.333 232.134 224.333 234.667C224.333 237.201 225.533 240.001 227.667 242.001L230.867 245.334H339H447.133L450.333 242.001C452.467 240.001 453.667 237.201 453.667 234.667C453.667 232.134 452.467 229.334 450.333 227.334L447.133 224.001H339H230.867L227.667 227.334Z" fill="white"/>
<path d="M227.667 270C225.533 272 224.333 274.8 224.333 277.333C224.333 279.867 225.533 282.667 227.667 284.667L230.867 288H288.333H345.8L349 284.667C351.133 282.667 352.333 279.867 352.333 277.333C352.333 274.8 351.133 272 349 270L345.8 266.667H288.333H230.867L227.667 270Z" fill="white"/>
<path d="M110.333 355.333L107 358.533V400V441.467L110.333 444.667L113.533 448H155H196.467L199.667 444.667L203 441.467V400V358.533L199.667 355.333L196.467 352H155H113.533L110.333 355.333ZM181.667 400V426.667H155H128.333V400V373.333H155H181.667V400Z" fill="white"/>
<path d="M227.667 366C225.533 368 224.333 370.8 224.333 373.333C224.333 375.867 225.533 378.667 227.667 380.667L230.867 384H339H447.133L450.333 380.667C452.467 378.667 453.667 375.867 453.667 373.333C453.667 370.8 452.467 368 450.333 366L447.133 362.667H339H230.867L227.667 366Z" fill="white"/>
<path d="M227.667 408.667C225.533 410.667 224.333 413.467 224.333 416C224.333 418.534 225.533 421.334 227.667 423.334L230.867 426.667H288.333H345.8L349 423.334C351.133 421.334 352.333 418.534 352.333 416C352.333 413.467 351.133 410.667 349 408.667L345.8 405.334H288.333H230.867L227.667 408.667Z" fill="white"/>
</svg>
