<svg width="24" height="24" viewBox="0 0 24 24" fill="none" xmlns="http://www.w3.org/2000/svg">
<g clip-path="url(#clip0_352_1646)">
<path d="M18.7734 0.299608C17.3016 0.913671 15.6703 1.71992 14.1797 2.56836C13.0172 3.23398 12.8953 3.30898 12.8344 3.44492C12.7266 3.6793 12.9188 3.98398 13.1719 3.98398C13.2703 3.98398 13.6688 3.78242 14.4281 3.34648C15.9094 2.49805 17.9391 1.49023 19.1625 0.998046C19.2094 0.979296 19.2188 2.53086 19.2094 8.7418L19.1953 16.509L18.375 16.8277C16.8328 17.423 14.8875 18.3418 13.125 19.3074L12.4453 19.6777L12.4219 11.9855C12.4078 7.73867 12.3797 4.25117 12.3563 4.2043C12.2531 3.99336 11.0016 3.54336 9.98438 3.35586C8.4 3.06055 5.16094 3.2668 2.70938 3.81992C1.96875 3.98398 1.85156 4.02148 1.725 4.11992L1.61719 4.20898L1.60313 13.1152C1.59844 18.7449 1.60781 22.0684 1.63594 22.1434C1.66406 22.209 1.73906 22.298 1.80469 22.3402C1.92656 22.4199 1.95 22.4199 2.35781 22.3215C4.93125 21.7074 8.23594 21.4402 9.74531 21.7215C10.2094 21.8059 11.0906 22.0543 11.3766 22.1762L11.5781 22.2605V22.734V23.2027H6.70313C1.95 23.2027 1.82344 23.2027 1.57969 23.109C1.27031 22.9918 1.0125 22.734 0.890625 22.4152C0.796875 22.1762 0.796875 22.0215 0.796875 14.2215V6.27148L0.660938 6.13555C0.576563 6.05586 0.473438 5.99961 0.398438 5.99961C0.323438 5.99961 0.220313 6.05586 0.135938 6.13555L0 6.27148V14.1934C0 19.3027 0.01875 22.1996 0.046875 22.3637C0.196875 23.1559 0.84375 23.8027 1.64063 23.9527C1.98281 24.0184 22.0172 24.0184 22.3641 23.9527C23.1563 23.8027 23.8031 23.1559 23.9531 22.359C23.9813 22.1996 24 19.3168 24 14.1934V6.27148L23.8641 6.13555C23.7797 6.05586 23.6766 5.99961 23.6016 5.99961C23.5266 5.99961 23.4234 6.05586 23.3391 6.13555L23.2031 6.27148V14.2215C23.2031 22.0449 23.2031 22.1715 23.1094 22.4199C22.9922 22.7293 22.7344 22.9871 22.4156 23.109C22.1766 23.198 22.0359 23.2027 17.2969 23.2027H12.4219V22.7387V22.2746L12.7172 22.1762C13.8469 21.8105 14.7469 21.6559 15.8766 21.623C17.5547 21.5715 19.5516 21.7965 21.2672 22.223C21.9422 22.3918 22.0453 22.4059 22.1578 22.3496C22.2281 22.3168 22.3125 22.2371 22.3453 22.1715C22.3922 22.0777 22.4063 20.2449 22.4063 13.209C22.4063 7.71992 22.3875 4.32148 22.3594 4.24648C22.3359 4.18086 22.2703 4.10586 22.2094 4.07305C22.0828 4.00273 21.3656 3.84805 21.1734 3.84336C21 3.84336 20.7656 4.07305 20.7656 4.2418C20.7656 4.43398 20.9813 4.62148 21.2531 4.65898C21.3797 4.67773 21.5109 4.70586 21.5438 4.71992C21.6 4.73867 21.6094 6.06523 21.6094 13.1105C21.6094 21.0559 21.6047 21.473 21.5297 21.4496C20.9203 21.2809 19.4906 21.0371 18.4688 20.9246C17.4 20.8074 15.2063 20.8027 14.5078 20.9199C13.9266 21.0184 12.9094 21.2715 12.3703 21.4496L12.0141 21.5668L11.7609 21.4684C10.5891 21.0043 9.52969 20.8121 8.17969 20.8121C6.55313 20.8121 4.55156 21.0277 2.92031 21.3746C2.68125 21.4262 2.46563 21.4684 2.4375 21.4684C2.40469 21.4684 2.39063 18.7402 2.39063 13.0871V4.70586L2.775 4.62617C4.30313 4.29805 5.83125 4.10117 7.3875 4.03555C9.07969 3.96055 10.0547 4.08711 11.3109 4.55117L11.5781 4.64961V12.4871C11.5781 17.7699 11.5969 20.3762 11.6297 20.4934C11.6766 20.6668 11.8547 20.8121 12.0094 20.8121C12.0422 20.8121 12.3563 20.6527 12.7031 20.4559C15.1406 19.0918 17.25 18.0887 19.1484 17.3902C19.5094 17.259 19.8469 17.109 19.8984 17.0574C19.9922 16.9684 19.9922 16.9027 19.9922 8.59648V0.224608L19.8609 0.112108C19.7859 0.0511709 19.6734 -0.000391579 19.6031 0.00429592C19.5328 0.00429592 19.1625 0.140233 18.7734 0.299608Z" fill="white"/>
<path d="M16.7812 4.68281C15.3656 5.25469 13.7765 6.02812 13.6593 6.21094C13.514 6.43125 13.7203 6.79688 13.9922 6.79688C14.0484 6.79688 14.3578 6.67031 14.6765 6.51094C15.5437 6.08437 16.6406 5.59219 17.25 5.35781C17.8172 5.14219 18 5.00625 18 4.8C18 4.63594 17.7609 4.40625 17.5922 4.40625C17.5218 4.40625 17.1562 4.53281 16.7812 4.68281Z" fill="white"/>
<path d="M17.0156 6.98906C16.4391 7.20469 15.2391 7.74844 14.3437 8.19375C13.6734 8.52656 13.5516 8.64375 13.6125 8.88281C13.6547 9.04687 13.8234 9.1875 13.9734 9.1875C14.0484 9.1875 14.4375 9.02812 14.8453 8.83125C15.8437 8.35312 16.8 7.92656 17.3578 7.71094C17.8359 7.52812 18 7.39219 18 7.18594C18 7.04062 17.7609 6.79687 17.6156 6.79687C17.5547 6.79687 17.2875 6.88594 17.0156 6.98906Z" fill="white"/>
<path d="M6.5156 7.24628C5.4281 7.36816 4.43904 7.55097 4.21404 7.66816C3.9656 7.79472 3.93747 8.12284 4.16247 8.29628C4.30779 8.41347 4.3781 8.41347 4.89841 8.30097C5.85466 8.09003 6.39841 8.03847 7.59372 8.04316C8.47497 8.04784 8.83122 8.06659 9.11716 8.12284C9.62341 8.23066 9.73122 8.22597 9.86716 8.08534C10.0734 7.88378 9.98435 7.51347 9.71716 7.43378C9.29529 7.31191 8.73747 7.25566 7.75779 7.24159C7.16716 7.23222 6.60466 7.23691 6.5156 7.24628Z" fill="white"/>
<path d="M17.1328 9.34629C16.5187 9.5666 15.3703 10.0775 14.4797 10.5275C13.8187 10.8557 13.6922 10.9354 13.6406 11.0572C13.5938 11.1744 13.5938 11.2307 13.6406 11.3432C13.7766 11.6713 14.0016 11.6572 14.8031 11.2541C15.5578 10.8791 16.8656 10.2979 17.4516 10.0775C17.775 9.95567 17.8781 9.89473 17.9344 9.7916C18.0281 9.60879 18.0187 9.4916 17.8969 9.35567C17.7328 9.17285 17.6016 9.17285 17.1328 9.34629Z" fill="white"/>
<path d="M6.67968 9.63671C6.60468 9.64608 6.31874 9.67889 6.04687 9.70702C5.50312 9.76327 4.45781 9.95546 4.25156 10.0398C3.99374 10.143 3.93749 10.4523 4.13906 10.6726C4.25624 10.8039 4.39687 10.8086 4.94531 10.6914C5.85468 10.4945 6.49218 10.4336 7.61718 10.4336C8.41874 10.4383 8.79375 10.4617 9.07031 10.518C9.59062 10.6211 9.73125 10.6164 9.86718 10.4758C10.0172 10.3305 10.0172 10.1242 9.88125 9.96483C9.75 9.81952 9.34687 9.72577 8.56406 9.65546C8.07187 9.61327 6.99843 9.60389 6.67968 9.63671Z" fill="white"/>
<path d="M16.8985 11.8307C16.2328 12.0932 14.9391 12.6838 14.2453 13.0354C13.8188 13.251 13.6875 13.3447 13.6453 13.4479C13.5328 13.7104 13.7016 13.9775 13.9781 13.9775C14.0766 13.9775 14.4328 13.8322 14.9297 13.5932C15.9 13.1244 16.7906 12.7307 17.4 12.4963C17.6485 12.3979 17.8781 12.29 17.9063 12.2572C17.9344 12.2244 17.9719 12.1213 17.986 12.0322C18.0047 11.8963 17.9906 11.8447 17.8922 11.7463C17.7188 11.5729 17.5078 11.5916 16.8985 11.8307Z" fill="white"/>
<path d="M6.72655 12.0276C5.97186 12.1072 5.24061 12.2104 4.78592 12.3041C4.09217 12.4494 3.94686 12.5713 4.04061 12.9276C4.06874 13.0401 4.12499 13.101 4.2328 13.1479C4.36405 13.1994 4.44842 13.1947 4.91249 13.101C5.89686 12.8947 6.57186 12.8291 7.59374 12.8291C8.27811 12.8291 8.68124 12.8526 8.99061 12.9041C9.61405 13.0166 9.76874 13.0119 9.88592 12.8619C10.0687 12.6276 9.97967 12.3322 9.68905 12.2385C9.32811 12.1213 8.63905 12.0416 7.80468 12.0276C7.31718 12.0182 6.82968 12.0182 6.72655 12.0276Z" fill="white"/>
<path d="M16.9922 14.1983C15.8625 14.6296 13.8281 15.6046 13.6875 15.7827C13.5609 15.9468 13.589 16.1483 13.7672 16.303C13.9406 16.4577 14.0156 16.4343 15.0937 15.9187C16.2562 15.3608 16.7344 15.1499 17.3203 14.9343C17.9578 14.6999 18.0984 14.5312 17.9297 14.2077C17.8031 13.9593 17.625 13.9546 16.9922 14.1983Z" fill="white"/>
<path d="M6.70784 14.4413C5.75627 14.5023 4.41096 14.7366 4.18596 14.8819C3.94221 15.046 3.96096 15.4069 4.22346 15.5429C4.35002 15.6085 4.41096 15.6038 4.93596 15.496C5.75627 15.3319 6.11252 15.2851 6.96096 15.2382C7.79065 15.1913 8.70002 15.2382 9.22502 15.346C9.67034 15.4444 9.67034 15.4444 9.83909 15.2991C10.0219 15.1444 10.0406 14.9101 9.87659 14.746C9.74065 14.6148 9.15002 14.4929 8.32034 14.4319C7.68752 14.3898 7.52815 14.3898 6.70784 14.4413Z" fill="white"/>
<path d="M6.39843 16.861C5.475 16.9454 4.29375 17.1844 4.13437 17.3204C3.96562 17.4657 3.97031 17.7422 4.14843 17.8922C4.29843 18.0235 4.32656 18.0235 4.85156 17.911C5.83125 17.7001 6.31406 17.6532 7.52343 17.6485C8.475 17.6485 8.78437 17.6672 9.15469 17.7376C9.65156 17.8313 9.84375 17.8032 9.9375 17.6204C10.0078 17.4891 9.99375 17.2688 9.90469 17.161C9.73594 16.9547 8.79844 16.8282 7.52343 16.8376C7.00781 16.8422 6.50156 16.8516 6.39843 16.861Z" fill="white"/>
</g>
<defs>
<clipPath id="clip0_352_1646">
<rect width="24" height="24" fill="white"/>
</clipPath>
</defs>
</svg>
