<svg width="20" height="20" viewBox="0 0 20 20" fill="none" xmlns="http://www.w3.org/2000/svg">
<path d="M9.99996 1.66699C5.41663 1.66699 1.66663 5.41699 1.66663 10.0003C1.66663 14.5837 5.41663 18.3337 9.99996 18.3337C14.5833 18.3337 18.3333 14.5837 18.3333 10.0003C18.3333 5.41699 14.5833 1.66699 9.99996 1.66699ZM9.99996 5.83366C11.4166 5.83366 12.5 6.91699 12.5 8.33366C12.5 9.75033 11.4166 10.8337 9.99996 10.8337C8.58329 10.8337 7.49996 9.75033 7.49996 8.33366C7.49996 6.91699 8.58329 5.83366 9.99996 5.83366ZM9.99996 16.667C8.16663 16.667 6.41663 15.917 5.16663 14.5837C6.99996 11.917 10.5833 11.2503 13.25 13.0837C13.8333 13.5003 14.3333 14.0003 14.75 14.5837C13.5833 15.917 11.8333 16.667 9.99996 16.667Z" fill="white"/>
</svg>
