<svg width="683" height="683" viewBox="0 0 683 683" fill="none" xmlns="http://www.w3.org/2000/svg">
<path d="M83.8667 37.2003L80.6667 39.7336V306.667V573.6L83.8667 576.134C86.9333 578.667 92.1333 578.667 295.333 578.667C410 578.667 504.8 578.267 506 577.867C512.267 575.467 512 587.334 512 306.667C512 26.0003 512.267 37.867 506 35.467C504.8 35.067 410 34.667 295.333 34.667C92.1333 34.667 86.9333 34.667 83.8667 37.2003ZM489.333 306.667V557.334H296H102.667V306.667V56.0003H296H489.333V306.667Z" fill="white"/>
<path d="M126.667 76.4006C120.267 79.6006 120 81.6006 120.267 125.734L120.667 166.934L124.4 170.134L128.133 173.334H170.133H212.133L215.333 170.001L218.667 166.801V124.401C218.533 79.8673 218.533 79.4673 212.4 76.2673C208.133 74.0006 131.2 74.134 126.667 76.4006ZM197.067 124.267L196.667 151.334L169.733 151.734L142.667 152.001V124.667V97.334H170H197.333L197.067 124.267Z" fill="white"/>
<path d="M245.867 110.934C239.6 113.867 238.4 122.4 243.333 127.334L246.533 130.667H309.867H373.2L375.867 127.2C380.4 121.467 378.667 113.6 372.4 110.8C368.133 108.8 249.867 108.934 245.867 110.934Z" fill="white"/>
<path d="M243.333 155.334C239.733 158.801 239.2 162.534 241.6 167.067C244.933 173.467 241.6 173.201 346.8 173.334C444 173.334 446.4 173.334 449.733 170.667C451.467 169.201 453.467 166.534 453.867 164.667C454.8 160.801 451.867 154.134 448.667 152.801C447.467 152.401 401.467 152.001 346.533 152.001H246.533L243.333 155.334Z" fill="white"/>
<path d="M125.6 198.267C124.667 198.667 123.067 200.667 122 202.667C120.4 205.867 120 213.734 120 245.067C120 284.8 120.667 290.8 125.333 293.334C126.8 294.134 145.067 294.667 170 294.667H212.133L215.333 291.334L218.667 288.134V246.267C218.667 205.867 218.533 204.267 215.867 200.8L213.2 197.334L170.267 197.467C146.667 197.467 126.533 197.867 125.6 198.267ZM197.333 246V273.334H170H142.667V246V218.667H170H197.333V246Z" fill="white"/>
<path d="M243.867 234.534C239.067 239.334 238.933 243.867 243.2 248.934L246.4 252.667H309.333H372.267L375.467 248.934C379.733 243.867 379.6 239.334 374.8 234.534L370.933 230.667H309.333H247.733L243.867 234.534Z" fill="white"/>
<path d="M245.6 274.267C242.667 275.467 239.733 282.667 240.667 286.8C242.533 295.067 237.6 294.667 346.8 294.667C401.6 294.667 447.467 294.267 448.667 293.867C450.933 292.933 454.667 286.667 454.667 283.467C454.667 282.4 453.067 279.733 451.2 277.467L447.733 273.333L347.6 273.467C292.4 273.467 246.533 273.867 245.6 274.267Z" fill="white"/>
<path d="M125.067 320.534C120.533 323.867 120 329.067 120 368.134C120 412 120.267 413.467 129.067 416C132.267 417.067 147.2 417.334 173.067 417.067L212.267 416.667L215.467 412.934L218.667 409.2V367.2V325.2L215.333 322L212.133 318.667H169.733C137.067 318.8 126.8 319.2 125.067 320.534ZM197.333 367.334V394.667H170H142.667V367.334V340H170H197.333V367.334Z" fill="white"/>
<path d="M248.4 352.934C244.533 353.734 240 359.467 240 363.6C240 365.467 241.733 368.534 243.867 370.8L247.733 374.667H308.533C350.133 374.667 370.267 374.267 372.4 373.2C378.933 370.267 380.4 362.134 375.467 356.4L372.267 352.667L311.733 352.534C278.533 352.4 250 352.534 248.4 352.934Z" fill="white"/>
<path d="M243.867 398.534C239.067 403.334 238.933 407.867 243.2 412.934L246.4 416.667L344.533 417.067C428.533 417.334 443.2 417.067 447.333 415.467C455.333 412.134 456.533 402.8 449.733 397.334C446.4 394.667 444 394.667 347.067 394.667H247.733L243.867 398.534Z" fill="white"/>
<path d="M124.4 443.2L120.667 446.4V489.2C120.667 531.867 120.667 531.867 123.733 534.934C126.667 538 127.067 538 167.067 538.4C189.2 538.667 208.667 538.4 210.267 538C211.867 537.6 214.533 536 216 534.4C218.533 531.6 218.667 529.867 218.667 489.067V446.534L215.333 443.334L212.133 440H170.133H128.133L124.4 443.2ZM197.067 488.934L197.333 516H170H142.667V488.667V461.334L169.733 461.6L196.667 462L197.067 488.934Z" fill="white"/>
<path d="M244.4 476.667C238.8 480.667 239.867 492.8 246 495.2C247.2 495.6 276.133 496 310.133 496H372.133L375.333 492.667C377.467 490.667 378.667 487.867 378.667 485.333C378.667 482.8 377.467 480 375.333 478L372.133 474.667H309.733C256.267 474.667 246.8 474.933 244.4 476.667Z" fill="white"/>
<path d="M247.2 517.334C243.333 518.8 240 523.734 240 527.734C240 529.467 241.733 532.667 243.867 534.8L247.867 538.667L347.867 538.4L447.867 538L450.933 535.067C454.933 531.067 454.933 523.6 450.933 519.6L447.867 516.667L348.933 516.4C294.533 516.267 248.667 516.667 247.2 517.334Z" fill="white"/>
<path d="M540.267 70.267C539.333 70.667 537.733 72.667 536.667 74.667C533.733 80.4003 533.6 602.134 536.667 607.867C540.533 615.6 551.467 615.6 555.333 607.867C557.067 604.667 557.333 569.334 557.333 341.334C557.333 60.667 557.6 72.5336 551.333 70.1336C548.8 69.2003 542.8 69.2003 540.267 70.267Z" fill="white"/>
<path d="M585.6 104.934C584.667 105.334 583.067 107.334 582 109.334C579.067 115.067 578.933 636.8 582 642.534C585.067 648.667 593.2 650 598.8 645.467L602 642.934V376V109.067L598.8 106.534C595.867 104.134 589.467 103.334 585.6 104.934Z" fill="white"/>
</svg>
