<svg width="683" height="683" viewBox="0 0 683 683" fill="none" xmlns="http://www.w3.org/2000/svg">
<path d="M99.3333 35.3336L96 38.5336V83.3336V128H78C60.5333 128 59.7333 128.134 56.6667 131.334L53.3333 134.534V389.334V644.134L56.6667 647.334L59.8667 650.667H341.333H622.8L626 647.334C630.4 643.067 630.4 636.934 626 632.667L622.8 629.334H348.667H74.6667V389.334V149.334H85.3333H96V348.534C96 542.667 96 547.734 98.5333 550.8L101.067 554L334.267 554.667L567.333 555.334L576.267 559.6C594.267 568.134 605.867 584.267 607.6 603.334C608.267 610.4 609.2 613.2 611.467 615.6C615.6 619.734 621.867 619.6 626 615.334L629.333 612.134V356.267C629.333 180.667 628.933 98.0003 627.867 92.5336C622.8 64.1336 597.2 38.5336 568.8 33.467C563.467 32.5336 510.133 32.0003 406.4 32.0003H251.867L248.667 35.3336C244.667 39.2003 244.4 45.2003 247.867 49.467L250.4 52.667L408.933 53.3336L567.467 54.0003L577.6 58.9336C589.733 64.9336 597.2 72.667 603.067 85.067L607.333 94.0003L607.733 324.534C608 510.134 607.733 554.8 606.4 553.734C605.467 553.067 602.267 550.534 599.333 548.267C592.133 542.667 578.267 536.534 568.667 534.8C563.2 533.734 493.733 533.334 339.067 533.334H117.333V293.334V53.3336H167.333H217.467L220.667 50.0003C222.8 48.0003 224 45.2003 224 42.667C224 40.1336 222.8 37.3336 220.667 35.3336L217.467 32.0003H160H102.533L99.3333 35.3336Z" fill="white"/>
<path d="M163.333 110L160 113.2V154.667V196.134L163.333 199.334L166.533 202.667H208H249.467L252.667 199.334L256 196.134V154.667V113.2L252.667 110L249.467 106.667H208H166.533L163.333 110ZM234.667 154.667V181.334H208H181.333V154.667V128H208H234.667V154.667Z" fill="white"/>
<path d="M280.667 120.667C278.533 122.667 277.333 125.467 277.333 128C277.333 130.534 278.533 133.334 280.667 135.334L283.867 138.667H392H500.133L503.333 135.334C505.467 133.334 506.667 130.534 506.667 128C506.667 125.467 505.467 122.667 503.333 120.667L500.133 117.334H392H283.867L280.667 120.667Z" fill="white"/>
<path d="M280.667 163.334C278.533 165.334 277.333 168.134 277.333 170.667C277.333 173.201 278.533 176.001 280.667 178.001L283.867 181.334H341.333H398.8L402 178.001C404.133 176.001 405.333 173.201 405.333 170.667C405.333 168.134 404.133 165.334 402 163.334L398.8 160.001H341.333H283.867L280.667 163.334Z" fill="white"/>
<path d="M163.333 248.667L160 251.867V293.334V334.801L163.333 338.001L166.533 341.334H208H249.467L252.667 338.001L256 334.801V293.334V251.867L252.667 248.667L249.467 245.334H208H166.533L163.333 248.667ZM234.667 293.334V320.001H208H181.333V293.334V266.667H208H234.667V293.334Z" fill="white"/>
<path d="M280.667 259.334C278.533 261.334 277.333 264.134 277.333 266.667C277.333 269.201 278.533 272.001 280.667 274.001L283.867 277.334H392H500.133L503.333 274.001C505.467 272.001 506.667 269.201 506.667 266.667C506.667 264.134 505.467 261.334 503.333 259.334L500.133 256.001H392H283.867L280.667 259.334Z" fill="white"/>
<path d="M280.667 302C278.533 304 277.333 306.8 277.333 309.333C277.333 311.867 278.533 314.667 280.667 316.667L283.867 320H341.333H398.8L402 316.667C404.133 314.667 405.333 311.867 405.333 309.333C405.333 306.8 404.133 304 402 302L398.8 298.667H341.333H283.867L280.667 302Z" fill="white"/>
<path d="M163.333 387.333L160 390.533V432V473.467L163.333 476.667L166.533 480H208H249.467L252.667 476.667L256 473.467V432V390.533L252.667 387.333L249.467 384H208H166.533L163.333 387.333ZM234.667 432V458.667H208H181.333V432V405.333H208H234.667V432Z" fill="white"/>
<path d="M280.667 398C278.533 400 277.333 402.8 277.333 405.333C277.333 407.867 278.533 410.667 280.667 412.667L283.867 416H392H500.133L503.333 412.667C505.467 410.667 506.667 407.867 506.667 405.333C506.667 402.8 505.467 400 503.333 398L500.133 394.667H392H283.867L280.667 398Z" fill="white"/>
<path d="M280.667 440.667C278.533 442.667 277.333 445.467 277.333 448C277.333 450.534 278.533 453.334 280.667 455.334L283.867 458.667H341.333H398.8L402 455.334C404.133 453.334 405.333 450.534 405.333 448C405.333 445.467 404.133 442.667 402 440.667L398.8 437.334H341.333H283.867L280.667 440.667Z" fill="white"/>
</svg>
