<svg width="34" height="34" viewBox="0 0 34 34" fill="none" xmlns="http://www.w3.org/2000/svg">
<circle cx="17" cy="17" r="17" fill="#E50914"/>
<circle cx="17" cy="17" r="17" fill="#E50914"/>
<path d="M11.7247 25.4606L15.2155 21.9723C15.8882 21.3002 15.8884 20.2099 15.216 19.5375C14.5437 18.8653 13.4538 18.8653 12.7816 19.5375L9.28986 23.0292C8.90343 23.4157 8.90343 24.0517 9.28986 24.4381L10.3123 25.4606C10.7022 25.8471 11.3417 25.8471 11.7247 25.4606Z" fill="#FEFDFE"/>
<path d="M15.6867 17.789C15.3345 18.1413 15.3345 18.7123 15.6867 19.0646C16.0389 19.4168 16.61 19.4168 16.9622 19.0646L17.1162 18.9106C17.4992 18.5276 18.0972 18.487 18.5915 18.7087C20.4597 19.5465 22.7316 19.201 24.265 17.6676C26.245 15.6876 26.245 12.4697 24.265 10.4863C22.285 8.50286 19.0671 8.50628 17.0836 10.4863C15.5503 12.0196 15.2048 14.2915 16.0426 16.1598C16.2643 16.654 16.2237 17.2521 15.8406 17.6351L15.6867 17.789ZM18.0822 11.4712C19.5185 10.0349 21.8473 10.0349 23.2801 11.4712C24.7164 12.9074 24.7164 15.2362 23.2801 16.6691C21.8439 18.1054 19.515 18.1054 18.0822 16.6691C16.6459 15.2362 16.6459 12.9074 18.0822 11.4712Z" fill="#FEFDFE"/>
</svg>
