<svg width="154" height="34" viewBox="0 0 154 34" fill="none" xmlns="http://www.w3.org/2000/svg">
<path d="M26.0093 5.84573C25.049 5.84573 24.2594 5.57187 23.6406 5.02417C23.0431 4.45539 22.7444 3.76022 22.7444 2.93866C22.7444 2.09604 23.0431 1.40087 23.6406 0.85316C24.2594 0.284387 25.049 0 26.0093 0C26.9482 0 27.7164 0.284387 28.3139 0.85316C28.9327 1.40087 29.2422 2.09604 29.2422 2.93866C29.2422 3.76022 28.9327 4.45539 28.3139 5.02417C27.7164 5.57187 26.9482 5.84573 26.0093 5.84573ZM28.73 7.67844V25.3104H23.2565V7.67844H28.73Z" fill="#E50914"/>
<path d="M39.4825 7.42565C40.7415 7.42565 41.8405 7.67844 42.7794 8.18402C43.7397 8.68959 44.4759 9.35316 44.9881 10.1747V7.67844H50.4616V25.2788C50.4616 26.9009 50.1308 28.3649 49.4693 29.671C48.8291 30.9981 47.8369 32.0514 46.4925 32.8309C45.1694 33.6103 43.5157 34 41.5311 34C38.885 34 36.7404 33.3786 35.0973 32.1357C33.4542 30.9139 32.5152 29.2497 32.2805 27.1431H37.69C37.8607 27.8172 38.2662 28.3439 38.9064 28.7231C39.5465 29.1233 40.3361 29.3234 41.275 29.3234C42.406 29.3234 43.3023 28.9969 43.9638 28.3439C44.6466 27.7119 44.9881 26.6902 44.9881 25.2788V22.7825C44.4546 23.6041 43.7184 24.2782 42.7794 24.8048C41.8405 25.3104 40.7415 25.5632 39.4825 25.5632C38.0101 25.5632 36.6764 25.1946 35.4814 24.4573C34.2864 23.6989 33.3368 22.6351 32.6326 21.2658C31.9498 19.8755 31.6083 18.2745 31.6083 16.4628C31.6083 14.6512 31.9498 13.0607 32.6326 11.6915C33.3368 10.3222 34.2864 9.2689 35.4814 8.5316C36.6764 7.7943 38.0101 7.42565 39.4825 7.42565ZM44.9881 16.4944C44.9881 15.1462 44.604 14.0824 43.8357 13.303C43.0889 12.5235 42.1713 12.1338 41.083 12.1338C39.9947 12.1338 39.0664 12.5235 38.2982 13.303C37.5513 14.0613 37.1779 15.1146 37.1779 16.4628C37.1779 17.811 37.5513 18.8854 38.2982 19.6859C39.0664 20.4653 39.9947 20.855 41.083 20.855C42.1713 20.855 43.0889 20.4653 43.8357 19.6859C44.604 18.9064 44.9881 17.8426 44.9881 16.4944Z" fill="#E50914"/>
<path d="M57.1742 5.84573C56.2139 5.84573 55.4244 5.57187 54.8056 5.02417C54.2081 4.45539 53.9093 3.76022 53.9093 2.93866C53.9093 2.09604 54.2081 1.40087 54.8056 0.85316C55.4244 0.284387 56.2139 0 57.1742 0C58.1131 0 58.8814 0.284387 59.4789 0.85316C60.0977 1.40087 60.4071 2.09604 60.4071 2.93866C60.4071 3.76022 60.0977 4.45539 59.4789 5.02417C58.8814 5.57187 58.1131 5.84573 57.1742 5.84573ZM59.895 7.67844V25.3104H54.4214V7.67844H59.895Z" fill="#E50914"/>
<path d="M89.4967 25.5632C87.7469 25.5632 86.1678 25.1946 84.7594 24.4573C83.3724 23.72 82.2734 22.6667 81.4625 21.2974C80.6729 19.9281 80.2782 18.3271 80.2782 16.4944C80.2782 14.6828 80.6836 13.0923 81.4945 11.7231C82.3054 10.3327 83.415 9.2689 84.8234 8.5316C86.2318 7.7943 87.8109 7.42565 89.5608 7.42565C91.3106 7.42565 92.8897 7.7943 94.2981 8.5316C95.7065 9.2689 96.8161 10.3327 97.627 11.7231C98.4379 13.0923 98.8434 14.6828 98.8434 16.4944C98.8434 18.3061 98.4272 19.9071 97.595 21.2974C96.7841 22.6667 95.6638 23.72 94.2341 24.4573C92.8257 25.1946 91.2466 25.5632 89.4967 25.5632ZM89.4967 20.8866C90.5424 20.8866 91.4279 20.5074 92.1535 19.7491C92.9004 18.9907 93.2738 17.9058 93.2738 16.4944C93.2738 15.083 92.911 13.9981 92.1855 13.2398C91.4813 12.4814 90.6064 12.1022 89.5608 12.1022C88.4938 12.1022 87.6082 12.4814 86.904 13.2398C86.1998 13.9771 85.8477 15.062 85.8477 16.4944C85.8477 17.9058 86.1891 18.9907 86.872 19.7491C87.5762 20.5074 88.4511 20.8866 89.4967 20.8866Z" fill="#FDFEFF"/>
<path d="M107.221 10.6171C107.861 9.64808 108.661 8.88972 109.621 8.34201C110.582 7.77324 111.649 7.48885 112.822 7.48885V13.2082H111.318C109.952 13.2082 108.928 13.5031 108.245 14.0929C107.562 14.6617 107.221 15.6729 107.221 17.1264V25.3104H101.747V7.67844H107.221V10.6171Z" fill="#FDFEFF"/>
<path d="M122.224 7.42565C123.483 7.42565 124.582 7.67844 125.521 8.18402C126.482 8.68959 127.218 9.35316 127.73 10.1747V7.67844H133.203V25.2788C133.203 26.9009 132.873 28.3649 132.211 29.671C131.571 30.9981 130.579 32.0514 129.234 32.8309C127.911 33.6103 126.257 34 124.273 34C121.627 34 119.482 33.3786 117.839 32.1357C116.196 30.9139 115.257 29.2497 115.022 27.1431H120.432C120.603 27.8172 121.008 28.3439 121.648 28.7231C122.288 29.1233 123.078 29.3234 124.017 29.3234C125.148 29.3234 126.044 28.9969 126.706 28.3439C127.388 27.7119 127.73 26.6902 127.73 25.2788V22.7825C127.196 23.6041 126.46 24.2782 125.521 24.8048C124.582 25.3104 123.483 25.5632 122.224 25.5632C120.752 25.5632 119.418 25.1946 118.223 24.4573C117.028 23.6989 116.079 22.6351 115.374 21.2658C114.692 19.8755 114.35 18.2745 114.35 16.4628C114.35 14.6512 114.692 13.0607 115.374 11.6915C116.079 10.3222 117.028 9.2689 118.223 8.5316C119.418 7.7943 120.752 7.42565 122.224 7.42565ZM127.73 16.4944C127.73 15.1462 127.346 14.0824 126.578 13.303C125.831 12.5235 124.913 12.1338 123.825 12.1338C122.737 12.1338 121.808 12.5235 121.04 13.303C120.293 14.0613 119.92 15.1146 119.92 16.4628C119.92 17.811 120.293 18.8854 121.04 19.6859C121.808 20.4653 122.737 20.855 123.825 20.855C124.913 20.855 125.831 20.4653 126.578 19.6859C127.346 18.9064 127.73 17.8426 127.73 16.4944Z" fill="#FDFEFF"/>
<path d="M154 16.21C154 16.7156 153.968 17.2423 153.904 17.79H141.517C141.602 18.8854 141.954 19.728 142.573 20.3178C143.213 20.8866 143.992 21.171 144.909 21.171C146.275 21.171 147.225 20.6022 147.758 19.4647H153.584C153.285 20.6233 152.741 21.6661 151.951 22.5929C151.183 23.5198 150.212 24.2466 149.039 24.7732C147.865 25.2999 146.553 25.5632 145.102 25.5632C143.352 25.5632 141.794 25.1946 140.428 24.4573C139.063 23.72 137.996 22.6667 137.227 21.2974C136.459 19.9281 136.075 18.3271 136.075 16.4944C136.075 14.6617 136.448 13.0607 137.195 11.6915C137.964 10.3222 139.031 9.2689 140.396 8.5316C141.762 7.7943 143.33 7.42565 145.102 7.42565C146.83 7.42565 148.366 7.78377 149.711 8.5C151.055 9.21623 152.101 10.2379 152.848 11.5651C153.616 12.8922 154 14.4405 154 16.21ZM148.398 14.7881C148.398 13.8612 148.078 13.1239 147.438 12.5762C146.798 12.0285 145.998 11.7546 145.038 11.7546C144.12 11.7546 143.341 12.018 142.701 12.5446C142.082 13.0713 141.698 13.8191 141.549 14.7881H148.398Z" fill="#FDFEFF"/>
<path d="M78.4897 3.12825V7.45725H63.8616V3.12825H78.4897Z" fill="#FDFEFF"/>
<path d="M69.3351 12.1338H76.185V16.3364H69.3351V25.3104H63.8616V12.1338H69.3351Z" fill="#FDFEFF"/>
<path d="M8.41835 3.12825C10.787 3.12825 12.8569 3.5917 14.6281 4.51859C16.3992 5.44548 17.765 6.75155 18.7252 8.4368C19.7068 10.101 20.1976 12.0285 20.1976 14.2193C20.1976 16.3891 19.7068 18.3166 18.7252 20.0019C17.765 21.6871 16.3886 22.9932 14.5961 23.9201C12.8249 24.847 10.7657 25.3104 8.41835 25.3104H0V9.44796H5.47353V20.6338H8.06625C10.1362 20.6338 11.7473 20.0756 12.8996 18.9591C14.0519 17.8426 14.6281 16.2627 14.6281 14.2193C14.6281 12.176 14.0519 10.5855 12.8996 9.44796C11.7473 8.31041 10.1362 7.74164 8.06625 7.74164H0.0156294V3.12825H8.41835Z" fill="#E50914"/>
</svg>
